<svg width="100" height="112" xmlns="http://www.w3.org/2000/svg">
 <g>
  <path stroke="#000000" fill="#ff0000" stroke-width="5" d="m44.283241,75.400795l0.687004,-6.582787l-8.10154,-1.147369c-20.506737,-2.900192 -40.611878,-15.200119 -51.805065,-31.697655c-2.005871,-2.960129 -3.351353,-5.811356 -2.9874,-6.336739c0.841412,-1.204353 21.263726,-10.802206 22.988143,-10.802206c0.707836,0 2.395424,1.763237 3.762681,3.923779c5.812924,9.198814 20.872499,18.794901 31.470786,20.061205l4.296982,0.50988l-0.739182,-5.68885c-0.76799,-5.906977 -0.550243,-7.146637 1.242207,-7.146637c1.147095,0 35.395092,22.68219 36.376553,24.092995c0.742157,1.066078 -3.967941,5.030579 -20.835133,17.528221c-7.327469,5.429306 -14.158146,9.87207 -15.185627,9.87207c-1.636623,0 -1.777725,-0.789597 -1.170414,-6.585907l0,0l0.000004,0z" transform="rotate(-123.787 31.7825 50.4104)"/>
 </g>
</svg>